<svg width="28" height="28" viewBox="0 0 28 28" fill="none" xmlns="http://www.w3.org/2000/svg">
<path fill-rule="evenodd" clip-rule="evenodd" d="M1.73047 5.3523C1.73047 4.43499 2.09487 3.55524 2.74351 2.9066C3.39215 2.25796 4.2719 1.89355 5.18922 1.89355H6.77102C7.76253 1.89355 8.62722 2.56916 8.86818 3.5307L10.1421 8.63005C10.2454 9.04279 10.2245 9.47682 10.0822 9.87776C9.93987 10.2787 9.6824 10.6287 9.34202 10.884L7.8513 12.0023C7.69566 12.1188 7.66222 12.2894 7.70604 12.4082C8.35672 14.1777 9.38422 15.7847 10.7174 17.1179C12.0506 18.4511 13.6576 19.4786 15.4271 20.1292C15.5459 20.173 15.7153 20.1396 15.8329 19.984L16.9513 18.4932C17.2065 18.1529 17.5566 17.8954 17.9575 17.7531C18.3585 17.6107 18.7925 17.5899 19.2052 17.6931L24.3046 18.9671C25.2661 19.2081 25.9417 20.0727 25.9417 21.0654V22.6461C25.9417 23.5634 25.5773 24.4431 24.9287 25.0918C24.28 25.7404 23.4003 26.1048 22.483 26.1048H19.8889C9.86084 26.1048 1.73047 17.9744 1.73047 7.94637V5.3523Z" fill="#C8A97E"/>
</svg>
