<svg width="40" height="40" viewBox="0 0 40 40" fill="none" xmlns="http://www.w3.org/2000/svg">
<path d="M7.19673 10.53C6.50028 11.2264 5.94783 12.0532 5.57091 12.9632C5.194 13.8731 5 14.8484 5 15.8333C5 16.8182 5.194 17.7935 5.57091 18.7035C5.94783 19.6134 6.50028 20.4402 7.19673 21.1367L20.0001 33.94L32.8034 21.1367C34.2099 19.7301 35.0001 17.8225 35.0001 15.8333C35.0001 13.8442 34.2099 11.9365 32.8034 10.53C31.3969 9.12345 29.4892 8.33327 27.5001 8.33327C25.5109 8.33327 23.6033 9.12345 22.1967 10.53L20.0001 12.7267L17.8034 10.53C17.107 9.83353 16.2802 9.28108 15.3702 8.90416C14.4603 8.52725 13.485 8.33325 12.5001 8.33325C11.5151 8.33325 10.5399 8.52725 9.62992 8.90416C8.71997 9.28108 7.89317 9.83353 7.19673 10.53Z" stroke="white" stroke-width="2" stroke-linecap="round" stroke-linejoin="round"/>
</svg>
