<svg width="40" height="40" viewBox="0 0 40 40" fill="none" xmlns="http://www.w3.org/2000/svg">
<path d="M20 7.25667C20.8957 6.24117 22.0795 5.52251 23.3937 5.19632C24.7079 4.87013 26.0903 4.95187 27.3569 5.43067C28.6235 5.90947 29.7143 6.76262 30.4841 7.8766C31.254 8.99058 31.6663 10.3126 31.6663 11.6667C31.6663 13.0208 31.254 14.3428 30.4841 15.4567C29.7143 16.5707 28.6235 17.4239 27.3569 17.9027C26.0903 18.3815 24.7079 18.4632 23.3937 18.137C22.0795 17.8108 20.8957 17.0922 20 16.0767M25 35H5V33.3333C5 30.6812 6.05357 28.1376 7.92893 26.2623C9.8043 24.3869 12.3478 23.3333 15 23.3333C17.6522 23.3333 20.1957 24.3869 22.0711 26.2623C23.9464 28.1376 25 30.6812 25 33.3333V35ZM25 35H35V33.3333C35.0002 31.5778 34.5384 29.8532 33.6608 28.3328C32.7832 26.8124 31.5208 25.5499 30.0006 24.672C28.4804 23.7942 26.7558 23.332 25.0004 23.3319C23.2449 23.3319 21.5203 23.7939 20 24.6717M21.6667 11.6667C21.6667 13.4348 20.9643 15.1305 19.714 16.3807C18.4638 17.631 16.7681 18.3333 15 18.3333C13.2319 18.3333 11.5362 17.631 10.286 16.3807C9.03571 15.1305 8.33333 13.4348 8.33333 11.6667C8.33333 9.89856 9.03571 8.20286 10.286 6.95262C11.5362 5.70238 13.2319 5 15 5C16.7681 5 18.4638 5.70238 19.714 6.95262C20.9643 8.20286 21.6667 9.89856 21.6667 11.6667Z" stroke="white" stroke-width="2" stroke-linecap="round" stroke-linejoin="round"/>
</svg>
