<svg width="40" height="40" viewBox="0 0 40 40" fill="none" xmlns="http://www.w3.org/2000/svg">
<path d="M5 13.3333L18.15 22.0999C18.6978 22.4654 19.3415 22.6604 20 22.6604C20.6585 22.6604 21.3022 22.4654 21.85 22.0999L35 13.3333M8.33333 31.6666H31.6667C32.5507 31.6666 33.3986 31.3154 34.0237 30.6903C34.6488 30.0652 35 29.2173 35 28.3333V11.6666C35 10.7825 34.6488 9.93468 34.0237 9.30956C33.3986 8.68444 32.5507 8.33325 31.6667 8.33325H8.33333C7.44928 8.33325 6.60143 8.68444 5.97631 9.30956C5.35119 9.93468 5 10.7825 5 11.6666V28.3333C5 29.2173 5.35119 30.0652 5.97631 30.6903C6.60143 31.3154 7.44928 31.6666 8.33333 31.6666Z" stroke="white" stroke-width="2" stroke-linecap="round" stroke-linejoin="round"/>
</svg>
