<svg width="64" height="64" viewBox="0 0 64 64" fill="none" xmlns="http://www.w3.org/2000/svg">
<path d="M36.8749 27.1254C34.8746 25.1257 32.162 24.0023 29.3335 24.0023C26.5051 24.0023 23.7925 25.1257 21.7922 27.1254L11.1255 37.792C10.1068 38.776 9.29416 39.953 8.73513 41.2544C8.1761 42.5558 7.88185 43.9554 7.86954 45.3718C7.85724 46.7881 8.12712 48.1926 8.66345 49.5035C9.19978 50.8144 9.99181 52.0054 10.9933 53.0069C11.9949 54.0084 13.1858 54.8005 14.4967 55.3368C15.8076 55.8731 17.2122 56.143 18.6285 56.1307C20.0448 56.1184 21.4445 55.8241 22.7459 55.2651C24.0472 54.7061 25.2242 53.8935 26.2082 52.8747L29.1469 49.9387M27.1255 36.8747C29.1258 38.8744 31.8385 39.9978 34.6669 39.9978C37.4953 39.9978 40.2079 38.8744 42.2082 36.8747L52.8749 26.208C54.8179 24.1963 55.893 21.5018 55.8687 18.7051C55.8444 15.9083 54.7226 13.233 52.7449 11.2553C50.7673 9.27761 48.0919 8.15581 45.2952 8.13151C42.4984 8.1072 39.804 9.18234 37.7922 11.1254L34.8589 14.0587" stroke="#C8A97E" stroke-width="2.66667" stroke-linecap="round" stroke-linejoin="round"/>
</svg>
