<svg width="64" height="64" viewBox="0 0 64 64" fill="none" xmlns="http://www.w3.org/2000/svg">
<path d="M45.333 53.3334H58.6663V48.0001C58.6662 46.3375 58.1481 44.7163 57.184 43.3618C56.22 42.0072 54.8578 40.9867 53.287 40.4421C51.7162 39.8975 50.0147 39.8558 48.419 40.3228C46.8234 40.7898 45.4129 41.7424 44.3837 43.0481M45.333 53.3334H18.6663M18.6663 53.3334V48.0001C18.6663 46.2507 19.0023 44.5787 19.6157 43.0481C20.606 40.5733 22.315 38.452 24.5223 36.9577C26.7297 35.4635 29.3341 34.6649 31.9997 34.6649C34.6652 34.6649 37.2696 35.4635 39.477 36.9577C41.6844 38.452 43.3934 40.5733 44.3837 43.0481C44.997 44.5787 45.333 46.2507 45.333 48.0001V53.3334M18.6663 53.3334H5.33301V48.0001C5.33313 46.3375 5.85124 44.7163 6.81531 43.3618C7.77937 42.0072 9.1415 40.9867 10.7123 40.4421C12.2832 39.8975 13.9847 39.8558 15.5803 40.3228C17.1759 40.7898 18.5864 41.7424 19.6157 43.0481M39.9997 18.6667C39.9997 20.7885 39.1568 22.8233 37.6565 24.3236C36.1562 25.8239 34.1214 26.6667 31.9997 26.6667C29.8779 26.6667 27.8431 25.8239 26.3428 24.3236C24.8425 22.8233 23.9997 20.7885 23.9997 18.6667C23.9997 16.545 24.8425 14.5102 26.3428 13.0099C27.8431 11.5096 29.8779 10.6667 31.9997 10.6667C34.1214 10.6667 36.1562 11.5096 37.6565 13.0099C39.1568 14.5102 39.9997 16.545 39.9997 18.6667ZM55.9997 26.6667C55.9997 28.0812 55.4378 29.4378 54.4376 30.438C53.4374 31.4382 52.0808 32.0001 50.6663 32.0001C49.2519 32.0001 47.8953 31.4382 46.8951 30.438C45.8949 29.4378 45.333 28.0812 45.333 26.6667C45.333 25.2523 45.8949 23.8957 46.8951 22.8955C47.8953 21.8953 49.2519 21.3334 50.6663 21.3334C52.0808 21.3334 53.4374 21.8953 54.4376 22.8955C55.4378 23.8957 55.9997 25.2523 55.9997 26.6667ZM18.6663 26.6667C18.6663 28.0812 18.1044 29.4378 17.1042 30.438C16.1041 31.4382 14.7475 32.0001 13.333 32.0001C11.9185 32.0001 10.562 31.4382 9.56177 30.438C8.56158 29.4378 7.99967 28.0812 7.99967 26.6667C7.99967 25.2523 8.56158 23.8957 9.56177 22.8955C10.562 21.8953 11.9185 21.3334 13.333 21.3334C14.7475 21.3334 16.1041 21.8953 17.1042 22.8955C18.1044 23.8957 18.6663 25.2523 18.6663 26.6667Z" stroke="#C8A97E" stroke-width="2.66667" stroke-linecap="round" stroke-linejoin="round"/>
</svg>
